<?xml version="1.0" encoding="UTF-8"?>
<svg id="Camada_1" xmlns="http://www.w3.org/2000/svg" version="1.1" viewBox="0 0 351.98 141.29">
  <!-- Generator: Adobe Illustrator 30.4.0, SVG Export Plug-In . SVG Version: 2.1.4 Build 226)  -->
  <defs>
    <style>
      .st0 {
        fill: #fff;
      }

      .st1 {
        fill: #fae92a;
      }
    </style>
  </defs>
  <g>
    <path class="st1" d="M252.26,34.36h-5.95v-9.84c0-2.7-2.19-4.9-4.9-4.9s-4.9,2.19-4.9,4.9v29.48c0,2.7,2.19,4.9,4.9,4.9s4.9-2.19,4.9-4.9v-9.85h5.95c2.7,0,4.9-2.19,4.9-4.9s-2.19-4.9-4.9-4.9Z"/>
    <path class="st1" d="M227.31,15.22c-2.7,0-4.9,2.19-4.9,4.9v15.61c-9.18,2.19-17.46,6.91-24.04,13.75l-5.95,6.18-9.87-10.11c-1.89-1.94-4.99-1.97-6.92-.09-1.94,1.89-1.97,4.99-.08,6.92l13.39,13.73c.92.94,2.19,1.48,3.5,1.48h.02c1.33,0,2.59-.55,3.51-1.5l9.46-9.83c4.72-4.91,10.54-8.43,16.99-10.38v12.53c0,2.7,2.19,4.9,4.9,4.9s4.9-2.19,4.9-4.9V20.11c0-2.7-2.19-4.9-4.9-4.9Z"/>
    <path class="st0" d="M108.57,19.62c-2.7,0-4.9,2.19-4.9,4.9v9.84h-5.95c-2.7,0-4.9,2.19-4.9,4.9s2.19,4.9,4.9,4.9h5.95v9.85c0,2.7,2.19,4.9,4.9,4.9s4.9-2.19,4.9-4.9v-29.48c0-2.7-2.19-4.9-4.9-4.9Z"/>
    <path class="st0" d="M178.6,15.73c-2.42-1.2-5.36-.21-6.56,2.21l-17.6,35.42-6.23-8.38c-4.85-6.52-12.54-10.46-20.65-10.6v-14.26c0-2.7-2.19-4.9-4.9-4.9s-4.9,2.19-4.9,4.9v38.29c0,2.7,2.19,4.9,4.9,4.9s4.9-2.19,4.9-4.9v-14.22c5.03.14,9.78,2.59,12.79,6.63l10.99,14.79c.93,1.25,2.39,1.98,3.93,1.98.14,0,.29,0,.44-.02,1.7-.15,3.19-1.17,3.95-2.7l21.15-42.57c1.2-2.42.22-5.36-2.21-6.56Z"/>
  </g>
  <g>
    <path class="st0" d="M6.01,118.06h6.53c.29,0,.52.23.53.52.17,2.84,1.95,3.58,3.72,3.58,1.61,0,3.77-.67,3.77-4.83v-14.5c0-.3.24-.54.54-.54h6.55c.3,0,.54.24.54.54v14.1c0,8.78-4.34,11.72-11.57,11.72-6.35,0-11.05-2.29-11.15-10.05,0-.3.24-.55.54-.55Z"/>
    <path class="st0" d="M37.78,116.84v-14.01c0-.3.24-.54.54-.54h6.61c.3,0,.54.24.54.54v13.83c0,3.46,1.61,5.59,5.22,5.59s5.25-2.13,5.25-5.59v-13.83c0-.3.24-.54.54-.54h6.58c.3,0,.54.24.54.54v13.98c0,8.11-4.43,11.85-12.91,11.85s-12.91-3.74-12.91-11.82Z"/>
    <path class="st0" d="M73.69,102.29h7.95c.18,0,.35.09.45.25l9.44,14.67h.7v-14.38c0-.3.24-.54.54-.54h6.37c.3,0,.54.24.54.54v24.44c0,.3-.24.54-.54.54h-7.77c-.18,0-.35-.09-.45-.24l-9.65-14.67h-.67v14.38c0,.3-.24.54-.54.54h-6.37c-.3,0-.54-.24-.54-.54v-24.44c0-.3.24-.54.54-.54Z"/>
    <path class="st0" d="M109.77,102.29h6.55c.3,0,.54.24.54.54v24.44c0,.3-.24.54-.54.54h-6.55c-.3,0-.54-.24-.54-.54v-24.44c0-.3.24-.54.54-.54Z"/>
    <path class="st0" d="M125.97,115.05c0-8.11,5.68-13.61,14.31-13.61s14.31,5.5,14.31,13.61-5.68,13.61-14.31,13.61-14.31-5.5-14.31-13.61ZM147.02,115.05c0-4.37-3.01-7.02-6.74-7.02s-6.74,2.64-6.74,7.02,3.01,7.02,6.74,7.02,6.74-2.64,6.74-7.02Z"/>
    <path class="st0" d="M181.88,127.53l-3.4-6.36c-.09-.17-.28-.28-.47-.28h-6.13c-.3,0-.54.24-.54.54v5.85c0,.3-.24.54-.54.54h-6.55c-.3,0-.54-.24-.54-.54v-24.44c0-.3.24-.54.54-.54h13.65c7.02,0,10.87,3.1,10.87,9.54,0,3.29-1.43,5.69-3.52,7.2-.22.16-.3.45-.17.69l4.01,7.29c.2.36-.06.8-.47.8h-6.27c-.2,0-.38-.11-.47-.28ZM171.34,114.61c0,.3.24.54.54.54h5.54c2.43,0,3.74-1.15,3.74-3.25s-1.31-3.25-3.74-3.25h-5.54c-.3,0-.54.24-.54.54v5.43Z"/>
    <path class="st0" d="M213.91,102.29h6.64c.26,0,.48.19.53.44l3.08,16.93h.67l3.97-16.96c.06-.24.27-.41.52-.41h5.28c.25,0,.47.17.52.41l3.97,16.96h.67l3.08-16.93c.05-.26.27-.44.53-.44h6.64c.34,0,.59.31.53.64l-5,24.44c-.05.25-.27.43-.53.43h-9.42c-.25,0-.47-.18-.53-.43l-2.77-13.12h-.67l-2.77,13.12c-.05.25-.27.43-.53.43h-9.42c-.25,0-.47-.18-.53-.43l-5-24.44c-.07-.33.19-.64.53-.64Z"/>
    <path class="st0" d="M260.29,102.29h21.4c.3,0,.54.24.54.54v5.06c0,.3-.24.54-.54.54h-13.78c-.3,0-.54.24-.54.54v2.97c0,.3.24.54.54.54h13.23c.3,0,.54.24.54.54v4.06c0,.3-.24.54-.54.54h-13.23c-.3,0-.54.24-.54.54v2.97c0,.3.24.54.54.54h13.78c.3,0,.54.24.54.54v5.09c0,.3-.24.54-.54.54h-21.4c-.3,0-.54-.24-.54-.54v-24.44c0-.3.24-.54.54-.54Z"/>
    <path class="st0" d="M292.36,102.29h6.55c.3,0,.54.24.54.54v18.06c0,.3.24.54.54.54h12.9c.3,0,.54.24.54.54v5.3c0,.3-.24.54-.54.54h-20.52c-.3,0-.54-.24-.54-.54v-24.44c0-.3.24-.54.54-.54Z"/>
    <path class="st0" d="M323.46,102.29h6.55c.3,0,.54.24.54.54v18.06c0,.3.24.54.54.54h12.9c.3,0,.54.24.54.54v5.3c0,.3-.24.54-.54.54h-20.52c-.3,0-.54-.24-.54-.54v-24.44c0-.3.24-.54.54-.54Z"/>
  </g>
  <g>
    <path class="st1" d="M101.43,84.43c0-.06-.05-.11-.11-.11h-3.25v-1.22h8.11v1.22h-3.25c-.06,0-.11.05-.11.11v8.48h-1.39v-8.48Z"/>
    <path class="st1" d="M122.72,92.9s-.07-.02-.09-.05l-2.08-2.97c-.2.01-.41.03-.62.03h-2.32c-.06,0-.11.05-.11.11v2.88h-1.4v-9.7c0-.06.05-.11.11-.11h3.72c2.55,0,4.09,1.29,4.09,3.42,0,1.47-.74,2.54-2.03,3.05-.06.03-.09.1-.05.16l2.25,3.18h-1.47ZM122.62,86.52c0-1.4-.94-2.2-2.73-2.2h-2.27c-.06,0-.11.05-.11.11v4.2c0,.06.05.11.11.11h2.27c1.79,0,2.73-.81,2.73-2.21Z"/>
    <path class="st1" d="M141.81,91.69v1.22h-7.01c-.06,0-.11-.05-.11-.11v-9.59c0-.06.05-.11.11-.11h6.81v1.22h-5.41c-.06,0-.11.05-.11.11v2.8c0,.06.05.11.11.11h4.81v1.19h-4.81c-.06,0-.11.05-.11.11v2.95c0,.06.05.11.11.11h5.61Z"/>
    <path class="st1" d="M152.49,83.1h1.4v9.81h-1.4v-9.81Z"/>
    <path class="st1" d="M173.67,83.1v9.81h-1.15l-5.69-7.07c-.06-.08-.19-.03-.19.07v7.01h-1.4v-9.81h1.15l5.69,7.07c.06.08.19.03.19-.07v-7.01h1.4Z"/>
    <path class="st1" d="M191.2,90.45h-5.07s-.08.03-.1.06l-1.02,2.32s-.06.06-.1.06h-1.37l4.35-9.61c.05-.12.17-.19.3-.19h.96c.13,0,.25.08.3.19l4.37,9.61h-1.4s-.08-.03-.1-.06l-1.02-2.32s-.06-.06-.1-.06ZM190.71,89.18l-1.95-4.43c-.04-.09-.16-.09-.2,0l-1.95,4.43c-.03.07.02.15.1.15h3.9c.08,0,.13-.08.1-.15Z"/>
    <path class="st1" d="M203.68,83.21c0-.06.05-.11.11-.11h4.02c3.15,0,5.3,1.99,5.3,4.9s-2.14,4.9-5.3,4.9h-4.02c-.06,0-.11-.05-.11-.11v-9.59ZM207.73,91.69c2.42,0,3.98-1.48,3.98-3.68s-1.55-3.68-3.98-3.68h-2.54c-.06,0-.11.05-.11.11v7.15c0,.06.05.11.11.11h2.54Z"/>
    <path class="st1" d="M222.86,88c0-2.87,2.21-5.01,5.22-5.01s5.2,2.13,5.2,5.01-2.21,5.02-5.2,5.02-5.22-2.14-5.22-5.02ZM230.99,85.12s-.03-.03-.05-.04c-3.49-2.03-6.69-.12-6.69,2.93,0,2.17,1.63,3.77,3.82,3.77,3.06,0,5.03-3.17,2.91-6.65Z"/>
    <path class="st1" d="M250.44,92.9s-.07-.02-.09-.05l-2.08-2.97c-.2.01-.41.03-.62.03h-2.32c-.06,0-.11.05-.11.11v2.88h-1.4v-9.7c0-.06.05-.11.11-.11h3.72c2.55,0,4.09,1.29,4.09,3.42,0,1.47-.74,2.54-2.03,3.05-.06.03-.09.1-.05.16l2.25,3.18h-1.47ZM250.35,86.52c0-1.4-.94-2.2-2.73-2.2h-2.27c-.06,0-.11.05-.11.11v4.2c0,.06.05.11.11.11h2.27c1.79,0,2.73-.81,2.73-2.21Z"/>
  </g>
</svg>