<?xml version="1.0" encoding="UTF-8"?>
<svg id="Camada_1" xmlns="http://www.w3.org/2000/svg" version="1.1" viewBox="0 0 505.17 62.66">
  <!-- Generator: Adobe Illustrator 30.4.0, SVG Export Plug-In . SVG Version: 2.1.4 Build 226)  -->
  <defs>
    <style>
      .st0 {
        fill: #fff;
      }

      .st1 {
        fill: #fae92a;
      }
    </style>
  </defs>
  <g>
    <path class="st0" d="M187.39,42.73h5.73c.25,0,.45.21.47.46.15,2.49,1.71,3.14,3.27,3.14,1.41,0,3.3-.59,3.3-4.24v-12.72c0-.26.21-.47.47-.47h5.75c.26,0,.47.21.47.47v12.37c0,7.7-3.81,10.28-10.15,10.28-5.57,0-9.69-2.01-9.78-8.82,0-.26.21-.48.48-.48Z"/>
    <path class="st0" d="M215.26,41.67v-12.29c0-.26.21-.47.47-.47h5.8c.26,0,.47.21.47.47v12.13c0,3.04,1.41,4.9,4.58,4.9s4.61-1.86,4.61-4.9v-12.13c0-.26.21-.47.47-.47h5.77c.26,0,.47.21.47.47v12.26c0,7.11-3.89,10.39-11.32,10.39s-11.32-3.28-11.32-10.36Z"/>
    <path class="st0" d="M246.76,28.9h6.97c.16,0,.31.08.4.22l8.28,12.87h.61v-12.61c0-.26.21-.47.47-.47h5.59c.26,0,.47.21.47.47v21.44c0,.26-.21.47-.47.47h-6.82c-.16,0-.31-.08-.39-.21l-8.47-12.87h-.59v12.61c0,.26-.21.47-.47.47h-5.59c-.26,0-.47-.21-.47-.47v-21.44c0-.26.21-.47.47-.47Z"/>
    <path class="st0" d="M278.41,28.9h5.75c.26,0,.47.21.47.47v21.44c0,.26-.21.47-.47.47h-5.75c-.26,0-.47-.21-.47-.47v-21.44c0-.26.21-.47.47-.47Z"/>
    <path class="st0" d="M292.62,40.09c0-7.11,4.98-11.94,12.55-11.94s12.55,4.82,12.55,11.94-4.98,11.94-12.55,11.94-12.55-4.82-12.55-11.94ZM311.08,40.09c0-3.84-2.64-6.15-5.91-6.15s-5.92,2.32-5.92,6.15,2.64,6.15,5.92,6.15,5.91-2.32,5.91-6.15Z"/>
    <path class="st0" d="M341.66,51.03l-2.98-5.58c-.08-.15-.24-.25-.42-.25h-5.38c-.26,0-.47.21-.47.47v5.13c0,.26-.21.47-.47.47h-5.75c-.26,0-.47-.21-.47-.47v-21.44c0-.26.21-.47.47-.47h11.97c6.15,0,9.54,2.72,9.54,8.37,0,2.88-1.25,4.99-3.09,6.32-.2.14-.26.4-.15.61l3.52,6.39c.17.31-.05.7-.41.7h-5.5c-.17,0-.33-.1-.42-.25ZM332.42,39.7c0,.26.21.47.47.47h4.86c2.13,0,3.28-1.01,3.28-2.85s-1.15-2.85-3.28-2.85h-4.86c-.26,0-.47.21-.47.47v4.76Z"/>
    <path class="st0" d="M369.76,28.9h5.82c.23,0,.42.16.46.39l2.7,14.85h.59l3.49-14.88c.05-.21.24-.36.46-.36h4.64c.22,0,.41.15.46.36l3.49,14.88h.59l2.7-14.85c.04-.22.24-.39.46-.39h5.82c.3,0,.52.27.46.57l-4.39,21.44c-.04.22-.24.38-.46.38h-8.27c-.22,0-.41-.16-.46-.37l-2.43-11.51h-.59l-2.43,11.51c-.05.22-.24.37-.46.37h-8.27c-.22,0-.42-.16-.46-.38l-4.39-21.44c-.06-.29.16-.57.46-.57Z"/>
    <path class="st0" d="M410.43,28.9h18.77c.26,0,.47.21.47.47v4.44c0,.26-.21.47-.47.47h-12.09c-.26,0-.47.21-.47.47v2.6c0,.26.21.47.47.47h11.61c.26,0,.47.21.47.47v3.56c0,.26-.21.47-.47.47h-11.61c-.26,0-.47.21-.47.47v2.6c0,.26.21.47.47.47h12.09c.26,0,.47.21.47.47v4.47c0,.26-.21.47-.47.47h-18.77c-.26,0-.47-.21-.47-.47v-21.44c0-.26.21-.47.47-.47Z"/>
    <path class="st0" d="M438.57,28.9h5.75c.26,0,.47.21.47.47v15.84c0,.26.21.47.47.47h11.31c.26,0,.47.21.47.47v4.65c0,.26-.21.47-.47.47h-18c-.26,0-.47-.21-.47-.47v-21.44c0-.26.21-.47.47-.47Z"/>
    <path class="st0" d="M465.84,28.9h5.75c.26,0,.47.21.47.47v15.84c0,.26.21.47.47.47h11.31c.26,0,.47.21.47.47v4.65c0,.26-.21.47-.47.47h-18c-.26,0-.47-.21-.47-.47v-21.44c0-.26.21-.47.47-.47Z"/>
  </g>
  <g>
    <path class="st1" d="M189.16,13.28c0-.05-.04-.09-.09-.09h-2.85v-1.07h7.11v1.07h-2.85c-.05,0-.09.04-.09.09v7.44h-1.22v-7.44Z"/>
    <path class="st1" d="M207.84,20.71s-.06-.01-.08-.04l-1.83-2.6c-.17.01-.36.02-.54.02h-2.03c-.05,0-.09.04-.09.09v2.52h-1.23v-8.51c0-.05.04-.09.09-.09h3.26c2.24,0,3.59,1.13,3.59,3,0,1.29-.65,2.23-1.78,2.67-.06.02-.08.09-.04.14l1.97,2.79h-1.29ZM207.76,15.11c0-1.23-.82-1.93-2.4-1.93h-1.99c-.05,0-.09.04-.09.09v3.68c0,.05.04.09.09.09h1.99c1.57,0,2.4-.71,2.4-1.94Z"/>
    <path class="st1" d="M224.59,19.64v1.07h-6.15c-.05,0-.09-.04-.09-.09v-8.41c0-.05.04-.09.09-.09h5.98v1.07h-4.75c-.05,0-.09.04-.09.09v2.45c0,.05.04.09.09.09h4.22v1.04h-4.22c-.05,0-.09.04-.09.09v2.59c0,.05.04.09.09.09h4.92Z"/>
    <path class="st1" d="M233.96,12.11h1.23v8.6h-1.23v-8.6Z"/>
    <path class="st1" d="M252.54,12.11v8.6h-1.01l-4.99-6.21c-.06-.07-.17-.03-.17.06v6.15h-1.23v-8.6h1.01l4.99,6.21c.06.07.17.03.17-.06v-6.15h1.23Z"/>
    <path class="st1" d="M267.91,18.56h-4.45s-.07.02-.09.06l-.9,2.04s-.05.06-.09.06h-1.2l3.87-8.55s.05-.06.09-.06h1.09s.07.02.09.06l3.88,8.55h-1.23s-.07-.02-.09-.06l-.9-2.04s-.05-.06-.09-.06ZM267.48,17.45l-1.71-3.89c-.03-.07-.14-.07-.17,0l-1.71,3.89c-.03.06.02.13.09.13h3.42c.07,0,.11-.07.09-.13Z"/>
    <path class="st1" d="M278.86,12.21c0-.05.04-.09.09-.09h3.53c2.76,0,4.64,1.74,4.64,4.3s-1.88,4.3-4.64,4.3h-3.53c-.05,0-.09-.04-.09-.09v-8.41ZM282.41,19.64c2.13,0,3.49-1.3,3.49-3.23s-1.36-3.23-3.49-3.23h-2.23c-.05,0-.09.04-.09.09v6.27c0,.05.04.09.09.09h2.23Z"/>
    <path class="st1" d="M295.68,16.41c0-2.52,1.94-4.4,4.58-4.4s4.56,1.87,4.56,4.4-1.94,4.4-4.56,4.4-4.58-1.88-4.58-4.4ZM302.81,13.89s-.03-.03-.04-.04c-3.06-1.78-5.86-.1-5.86,2.57,0,1.9,1.43,3.31,3.35,3.31,2.68,0,4.42-2.78,2.55-5.83Z"/>
    <path class="st1" d="M319.88,20.71s-.06-.01-.08-.04l-1.83-2.6c-.17.01-.36.02-.54.02h-2.03c-.05,0-.09.04-.09.09v2.52h-1.23v-8.51c0-.05.04-.09.09-.09h3.26c2.24,0,3.59,1.13,3.59,3,0,1.29-.65,2.23-1.78,2.67-.06.02-.08.09-.04.14l1.97,2.79h-1.29ZM319.79,15.11c0-1.23-.82-1.93-2.4-1.93h-1.99c-.05,0-.09.04-.09.09v3.68c0,.05.04.09.09.09h1.99c1.57,0,2.4-.71,2.4-1.94Z"/>
  </g>
  <g>
    <path class="st1" d="M145.94,27.58h-5.05v-8.35c0-2.29-1.86-4.15-4.15-4.15s-4.15,1.86-4.15,4.15v25.02c0,2.29,1.86,4.15,4.15,4.15s4.15-1.86,4.15-4.15v-8.36h5.05c2.29,0,4.15-1.86,4.15-4.15s-1.86-4.15-4.15-4.15Z"/>
    <path class="st1" d="M124.77,11.33c-2.29,0-4.15,1.86-4.15,4.15v13.24c-7.8,1.86-14.82,5.86-20.4,11.67l-5.05,5.25-8.37-8.58c-1.6-1.64-4.23-1.67-5.88-.07-1.64,1.6-1.67,4.23-.07,5.88l11.37,11.65c.78.8,1.85,1.25,2.97,1.25h.01c1.12,0,2.2-.46,2.98-1.27l8.02-8.34c4.01-4.16,8.95-7.15,14.42-8.81v10.63c0,2.29,1.86,4.15,4.15,4.15s4.15-1.86,4.15-4.15V15.48c0-2.29-1.86-4.15-4.15-4.15Z"/>
    <path class="st0" d="M23.99,15.07c-2.29,0-4.15,1.86-4.15,4.15v8.35h-5.05c-2.29,0-4.15,1.86-4.15,4.15s1.86,4.15,4.15,4.15h5.05v8.36c0,2.29,1.86,4.15,4.15,4.15s4.15-1.86,4.15-4.15v-25.02c0-2.29-1.86-4.15-4.15-4.15Z"/>
    <path class="st0" d="M83.43,11.76c-2.06-1.02-4.55-.18-5.57,1.87l-14.94,30.06-5.28-7.11c-4.11-5.54-10.64-8.87-17.52-9v-12.11c0-2.29-1.86-4.15-4.15-4.15s-4.15,1.86-4.15,4.15v32.5c0,2.29,1.86,4.15,4.15,4.15s4.15-1.86,4.15-4.15v-12.07c4.27.12,8.3,2.2,10.85,5.63l9.33,12.55c.79,1.06,2.03,1.68,3.33,1.68.12,0,.25,0,.37-.02,1.44-.13,2.71-1,3.35-2.29l17.95-36.13c1.02-2.05.18-4.55-1.87-5.57Z"/>
  </g>
  <rect class="st1" x="167.68" y="5.27" width=".94" height="52.93"/>
</svg>