<?xml version="1.0" encoding="UTF-8"?>
<svg id="Camada_1" xmlns="http://www.w3.org/2000/svg" version="1.1" viewBox="0 0 47.52 45.37">
  <!-- Generator: Adobe Illustrator 30.6.0, SVG Export Plug-In . SVG Version: 2.1.4 Build 109)  -->
  <defs>
    <style>
      .st0 {
        fill: #fff;
      }

      .st1 {
        fill: none;
      }

      .st2 {
        fill: #fae92a;
      }
    </style>
  </defs>
  <path class="st1" d="M25.84,44.94c-.66.85-2.02.38-2.02-.7v-10.3c0-1.25-1.01-2.26-2.26-2.26,0,0,0,0,0,0h-11.38c-.92,0-1.46-1.04-.92-1.79l7.48-10.47c1.07-1.5,0-3.58-1.84-3.58H1.13c-.92,0-1.46-1.04-.92-1.79L9.91.47c.21-.3.56-.47.92-.47h28.89c.92,0,1.46,1.04.92,1.79l-7.48,10.47c-1.07,1.5,0,3.58,1.84,3.58h11.38c.94,0,1.47,1.09.89,1.83l-21.43,27.27h0Z"/>
  <g>
    <path class="st2" d="M45.5,20.89h-1.65v-2.73c0-.75-.61-1.36-1.36-1.36s-1.36.61-1.36,1.36v8.18c0,.75.61,1.36,1.36,1.36s1.36-.61,1.36-1.36v-2.73h1.65c.75,0,1.36-.61,1.36-1.36s-.61-1.36-1.36-1.36h0Z"/>
    <path class="st2" d="M38.58,15.58c-.75,0-1.36.61-1.36,1.36v4.33c-2.55.61-4.85,1.92-6.67,3.82l-1.65,1.72-2.74-2.81c-.52-.54-1.38-.55-1.92-.02-.54.52-.55,1.38-.02,1.92l3.72,3.81c.26.26.61.41.97.41h0c.37,0,.72-.15.97-.42l2.62-2.73c1.31-1.36,2.93-2.34,4.72-2.88v3.48c0,.75.61,1.36,1.36,1.36s1.36-.61,1.36-1.36v-10.63c0-.75-.61-1.36-1.36-1.36Z"/>
    <path class="st0" d="M5.61,16.8c-.75,0-1.36.61-1.36,1.36v2.73h-1.65c-.75,0-1.36.61-1.36,1.36s.61,1.36,1.36,1.36h1.65v2.73c0,.75.61,1.36,1.36,1.36s1.36-.61,1.36-1.36v-8.18c0-.75-.61-1.36-1.36-1.36h0Z"/>
    <path class="st0" d="M25.06,15.72c-.67-.33-1.49-.06-1.82.61l-4.89,9.83-1.73-2.33c-1.34-1.81-3.48-2.9-5.73-2.94v-3.96c0-.75-.61-1.36-1.36-1.36s-1.36.61-1.36,1.36v10.63c0,.75.61,1.36,1.36,1.36s1.36-.61,1.36-1.36v-3.95c1.4.04,2.72.72,3.55,1.84l3.05,4.11c.26.35.66.55,1.09.55.04,0,.08,0,.12,0,.47-.04.89-.33,1.1-.75l5.87-11.82c.33-.67.06-1.49-.61-1.82h0Z"/>
  </g>
</svg>