<?xml version="1.0" encoding="UTF-8"?>
<svg id="Camada_1" xmlns="http://www.w3.org/2000/svg" version="1.1" viewBox="0 0 139.45 44.45">
  <!-- Generator: Adobe Illustrator 30.6.0, SVG Export Plug-In . SVG Version: 2.1.4 Build 109)  -->
  <defs>
    <style>
      .st0 {
        fill: #fff;
      }

      .st1 {
        fill: #fae92a;
      }
    </style>
  </defs>
  <path class="st1" d="M135.3,16.26h-5.05V7.91c0-2.29-1.86-4.15-4.15-4.15s-4.15,1.86-4.15,4.15v25.02c0,2.29,1.86,4.15,4.15,4.15s4.15-1.86,4.15-4.15v-8.36h5.05c2.29,0,4.15-1.86,4.15-4.15s-1.86-4.15-4.15-4.15h0Z"/>
  <path class="st1" d="M114.13.01c-2.29,0-4.15,1.86-4.15,4.15v13.24c-7.8,1.86-14.82,5.86-20.4,11.67l-5.05,5.25-8.37-8.58c-1.6-1.64-4.23-1.67-5.88-.07-1.64,1.6-1.67,4.23-.07,5.88l11.37,11.65c.78.8,1.85,1.25,2.97,1.25h.01c1.12,0,2.2-.46,2.98-1.27l8.02-8.34c4.01-4.16,8.95-7.15,14.42-8.81v10.63c0,2.29,1.86,4.15,4.15,4.15s4.15-1.86,4.15-4.15V4.16C118.28,1.87,116.42.01,114.13.01Z"/>
  <path class="st0" d="M13.35,3.75c-2.29,0-4.15,1.86-4.15,4.15v8.35h-5.05c-2.29,0-4.15,1.86-4.15,4.15s1.86,4.15,4.15,4.15h5.05v8.36c0,2.29,1.86,4.15,4.15,4.15s4.15-1.86,4.15-4.15V7.89c0-2.29-1.86-4.15-4.15-4.15h0Z"/>
  <path class="st0" d="M72.79.44c-2.06-1.02-4.55-.18-5.57,1.87l-14.94,30.06-5.28-7.11c-4.11-5.54-10.64-8.87-17.52-9V4.15c0-2.29-1.86-4.15-4.15-4.15s-4.15,1.86-4.15,4.15v32.5c0,2.29,1.86,4.15,4.15,4.15s4.15-1.86,4.15-4.15v-12.07c4.27.12,8.3,2.2,10.85,5.63l9.33,12.55c.79,1.06,2.03,1.68,3.33,1.68.12,0,.25,0,.37-.02,1.44-.13,2.71-1,3.35-2.29L74.66,6c1.02-2.05.18-4.55-1.87-5.57h0Z"/>
</svg>